Coordinates
version=1
nRows=4
nColumns=107
inDegrees=yes

Units are S.I. units (second, meters, Newtons, ...)
If the header above contains a line with 'inDegrees', this indicates whether rotational values are in degrees (yes) or radians (no).

endheader
time	sternoclavicular_r2	sternoclavicular_r3	unrotscap_r3	unrotscap_r2	acromioclavicular_r2	acromioclavicular_r3	acromioclavicular_r1	unrothum_r1	unrothum_r3	unrothum_r2	elv_angle	shoulder_elv	shoulder1_r2	shoulder_rot	elbow_flexion	pro_sup	deviation	flexion	proximal_distal_r1	proximal_distal_r3	cmc_flexion	cmc_abduction	mp_flexion	ip_flexion	mcp2_flexion	mcp2_abduction	pm2_flexion	md2_flexion	mcp3_flexion	mcp3_abduction	pm3_flexion	md3_flexion	mcp4_flexion	mcp4_abduction	pm4_flexion	md4_flexion	mcp5_flexion	mcp5_abduction	pm5_flexion	md5_flexion	bicpt_tx	bicpt_ty	bicpt_tz	bicpt2_tx	bicpt2_ty	bicpt2_tz	ptpt_tx	ptpt_ty	ptpt_tz	FCUpt_tx	FCUpt_ty	FCUpt_tz	EDCpt_tx	EDCpt_ty	EDCpt_tz	APLpt_tx	APLpt_ty	APLpt_tz	FPLpt_tx	FPLpt_ty	FPLpt_tz	FPLpt2_tx	FPLpt2_ty	FPLpt2_tz	PEC1pt2_tx	PEC1pt2_ty	PEC1pt2_tz	PEC1pt3_tx	PEC1pt3_ty	PEC1pt3_tz	PEC2pt2_tx	PEC2pt2_ty	PEC2pt2_tz	PEC2pt3_tx	PEC2pt3_ty	PEC2pt3_tz	PEC3pt2_tx	PEC3pt2_ty	PEC3pt2_tz	PEC3pt3_tx	PEC3pt3_ty	PEC3pt3_tz	DELT2pt2a_tx	DELT2pt2a_ty	DELT2pt2a_tz	DELT2pt2_tx	DELT2pt2_ty	DELT2pt2_tz	LAT1pt2_tx	LAT1pt2_ty	LAT1pt2_tz	LAT1pt3_tx	LAT1pt3_ty	LAT1pt3_tz	LAT2pt2_tx	LAT2pt2_ty	LAT2pt2_tz	LAT2pt3_tx	LAT2pt3_ty	LAT2pt3_tz	LAT3pt2_tx	LAT3pt2_ty	LAT3pt2_tz	LAT3pt3_tx	LAT3pt3_ty	LAT3pt3_tz
      0.46666667	     -0.32172187	      0.13626620	     -0.13626620	      0.32172187	     -0.06514213	      0.52645581	      0.23663826	     -0.23663826	     -0.52645581	      0.06514213	    100.12701533	     76.17051191	     -1.74754609	    -26.65413690	     29.05823338	     52.82198929	      0.20179116	      0.25635308	      0.24052975	      0.12817654	     37.27872235	    -17.09593039	     14.52097591	     10.07688708	    -16.06566756	     11.67241609	     12.02206255	    -33.20092213	    -23.24004678	      5.75814254	      6.10771887	      9.95027445	    -20.51659715	     -7.93872204	     -7.56167804	     19.29729660	    -34.35287655	    -13.96105864	     -1.63924052	      5.05708650	      0.00086116	     -0.03093052	     -0.00483646	      0.01641031	     -0.01809381	     -0.00598601	      0.00364705	     -0.06742371	     -0.00430509	      0.00909651	     -0.18320499	     -0.00041554	     -0.00633862	      0.00192720	      0.00000982	     -0.00031732	     -0.00012693	     -0.00063464	     -0.00040617	     -0.00121851	     -0.00068541	     -0.00001261	     -0.00015991	     -0.00019190	      0.00249670	      0.00875962	      0.00609365	     -0.00816718	      0.01971972	     -0.01870411	      0.00249670	      0.00875962	      0.00609365	      0.00055012	      0.01828094	     -0.00960596	      0.00394807	      0.00487111	      0.01596797	      0.00000000	      0.00775931	      0.00000000	     -0.00715157	     -0.03304957	     -0.00639780	      0.01731994	     -0.00064456	     -0.00593996	     -0.00088866	      0.01489558	     -0.00609365	      0.00245439	      0.02149703	     -0.01777313	     -0.00596670	      0.01290668	     -0.00545889	     -0.01244119	      0.02725214	     -0.03051055	     -0.02335898	      0.01443009	     -0.00732084	     -0.01548802	      0.03148384	     -0.03812761
      0.50000000	     -0.32332120	      0.13694360	     -0.13694360	      0.32332120	     -0.06546597	      0.52907291	      0.23781463	     -0.23781463	     -0.52907291	      0.06546597	     99.96133485	     76.54916770	     -1.74465442	    -24.98166586	     28.31236321	     48.78342279	      0.17578684	      0.17828395	      0.21327509	      0.08914198	     37.05962029	    -16.05326194	     14.02870128	      5.44937185	    -16.48022976	     12.37656415	     14.58973551	    -34.48920767	    -25.28764137	      6.64283772	      8.57920242	     14.77724996	    -21.79439603	     -7.56727186	     -8.80219187	     24.13547975	    -36.22367868	    -13.84125781	     -2.38727489	      5.14763371	      0.00083649	     -0.03084503	     -0.00482269	      0.01650257	     -0.01789119	     -0.00647830	      0.00394546	     -0.06723076	     -0.00397977	      0.00867645	     -0.18330139	     -0.00041972	     -0.00585400	      0.00174945	      0.00006246	     -0.00020903	     -0.00008361	     -0.00041806	     -0.00026756	     -0.00080267	     -0.00045150	     -0.00001268	     -0.00016348	     -0.00019618	      0.00250911	      0.00880316	      0.00612394	     -0.00820778	      0.01981775	     -0.01879709	      0.00250911	      0.00880316	      0.00612394	      0.00055286	      0.01837182	     -0.00965371	      0.00396238	      0.00489533	      0.01600284	      0.00000000	      0.00783720	      0.00000000	     -0.00718712	     -0.03321386	     -0.00646245	      0.01648497	     -0.00058964	     -0.00521605	     -0.00089307	      0.01496963	     -0.00612394	      0.00246659	      0.02160389	     -0.01786149	     -0.00599636	      0.01297084	     -0.00548603	     -0.01250304	      0.02738761	     -0.03066222	     -0.02347510	      0.01450183	     -0.00735723	     -0.01556501	      0.03164035	     -0.03831714
      0.53333333	     -0.32635271	      0.13822760	     -0.13822760	      0.32635271	     -0.06607978	      0.53403358	      0.24004442	     -0.24004442	     -0.53403358	      0.06607978	     99.22712351	     77.26690421	     -1.73184001	    -21.26640011	     28.03050666	     43.06805288	      0.15284757	      0.10860459	      0.18831340	      0.05430229	     35.17174014	    -15.25415173	     14.89197477	      0.98257546	    -15.93708559	     10.61992566	     16.35709305	    -36.90089162	    -25.93008548	      5.35078659	     10.00067869	     18.79527467	    -22.42087780	     -7.88550228	    -10.58356900	     29.04017344	    -38.10638441	    -13.08831089	     -2.16649866	      5.03264433	      0.00082716	     -0.03081272	     -0.00481749	      0.01656938	     -0.01781462	     -0.00713592	      0.00436776	     -0.06695769	     -0.00351936	      0.00809058	     -0.18342991	     -0.00040466	     -0.00516815	      0.00150650	      0.00012185	     -0.00012099	     -0.00004840	     -0.00024198	     -0.00015487	     -0.00046460	     -0.00026134	     -0.00001276	     -0.00019204	     -0.00023045	      0.00253264	      0.00888570	      0.00618136	     -0.00828474	      0.02000356	     -0.01897333	      0.00253264	      0.00888570	      0.00618136	      0.00055804	      0.01854407	     -0.00974422	      0.00398936	      0.00494123	      0.01606799	      0.00000000	      0.00798593	      0.00000000	     -0.00725451	     -0.03352528	     -0.00658590	      0.01449631	     -0.00047115	     -0.00375035	     -0.00090145	      0.01510999	     -0.00618136	      0.00248971	      0.02180646	     -0.01802896	     -0.00605258	      0.01309246	     -0.00553747	     -0.01262027	      0.02764440	     -0.03094971	     -0.02369520	      0.01463780	     -0.00742621	     -0.01571095	      0.03193701	     -0.03867641
      0.56666667	     -0.32314888	      0.13687061	     -0.13687061	      0.32314888	     -0.06543108	      0.52879093	      0.23768789	     -0.23768789	     -0.52879093	      0.06543108	     99.79440862	     76.50837024	     -1.74174101	    -24.96747440	     29.02886663	     51.78279488	      0.21605113	      0.28300851	      0.25500555	      0.14150425	     37.62077278	    -17.38247758	     13.91149199	     10.68691799	    -16.74676596	     11.61991354	     12.03160618	    -31.35176413	    -23.55740173	      5.72531760	      6.41906461	     10.06353931	    -20.58143848	     -7.81972741	     -6.92018044	     18.62727774	    -34.25992858	    -13.96735073	     -1.91823997	      5.06582783	      0.00086018	     -0.03092715	     -0.00483592	      0.01643763	     -0.01808583	     -0.00611488	      0.00372384	     -0.06737406	     -0.00422138	      0.00898794	     -0.18323024	     -0.00041779	     -0.00621392	      0.00188098	      0.00002421	     -0.00035663	     -0.00014265	     -0.00071326	     -0.00045649	     -0.00136946	     -0.00077032	     -0.00001246	     -0.00015423	     -0.00018508	      0.00250778	      0.00879847	      0.00612067	     -0.00820340	      0.01980718	     -0.01878707	      0.00250778	      0.00879847	      0.00612067	      0.00055256	      0.01836202	     -0.00964856	      0.00396084	      0.00489272	      0.01599910	      0.00000000	      0.00782879	      0.00000000	     -0.00718329	     -0.03319616	     -0.00645547	      0.01647776	     -0.00058918	     -0.00521004	     -0.00089260	      0.01496165	     -0.00612067	      0.00246527	      0.02159238	     -0.01785197	     -0.00599316	      0.01296393	     -0.00548310	     -0.01249638	      0.02737302	     -0.03064588	     -0.02346259	      0.01449410	     -0.00735331	     -0.01555672	      0.03162349	     -0.03829672
